<svg width="85" height="88" viewBox="0 0 85 88" fill="none" xmlns="http://www.w3.org/2000/svg">
<circle cx="42.5" cy="45.5" r="42.5" fill="#D9D9D9"/>
<path d="M12.432 68V67.36H13.264C14.416 67.36 15.376 67.1893 16.144 66.848C16.9547 66.5067 17.552 65.9947 17.936 65.312C18.32 64.6293 18.512 63.776 18.512 62.752V27.296C18.512 26.3147 18.32 25.504 17.936 24.864C17.552 24.224 16.9547 23.7547 16.144 23.456C15.376 23.1147 14.416 22.944 13.264 22.944H12.432V22.304H31.056V22.944H30.224C29.072 22.944 28.0907 23.1147 27.28 23.456C26.512 23.7973 25.936 24.3093 25.552 24.992C25.168 25.6747 24.976 26.528 24.976 27.552V62.752C24.976 63.776 25.168 64.6293 25.552 65.312C25.936 65.9947 26.512 66.5067 27.28 66.848C28.0907 67.1893 29.072 67.36 30.224 67.36H31.056V68H12.432ZM35.292 68V67.36H35.804C37.1267 67.36 38.172 67.1893 38.94 66.848C39.708 66.464 40.2413 65.8453 40.54 64.992C40.8813 64.1387 41.052 62.9653 41.052 61.472V40.096C41.052 38.6453 40.8813 37.5147 40.54 36.704C40.2413 35.8507 39.7293 35.2533 39.004 34.912C38.2787 34.528 37.2547 34.336 35.932 34.336H35.612V33.696H47.004V39.712H47.132C47.7293 37.7067 48.5613 36.2347 49.628 35.296C50.6947 34.3573 51.8467 33.76 53.084 33.504C54.364 33.2053 55.5373 33.056 56.604 33.056C60.4013 33.056 63.2173 34.0587 65.052 36.064C66.9293 38.0267 67.868 41.2053 67.868 45.6V61.472C67.868 62.9653 68.0173 64.1387 68.316 64.992C68.6147 65.8453 69.1053 66.464 69.788 66.848C70.5133 67.1893 71.4733 67.36 72.668 67.36H72.988V68H61.852V43.424C61.852 40.6507 61.34 38.3893 60.316 36.64C59.292 34.8907 57.5213 34.016 55.004 34.016C52.9987 34.016 51.42 34.5493 50.268 35.616C49.116 36.6827 48.284 38.0693 47.772 39.776C47.3027 41.44 47.068 43.1893 47.068 45.024V61.472C47.068 62.9653 47.2173 64.1387 47.516 64.992C47.8573 65.8453 48.3907 66.464 49.116 66.848C49.884 67.1893 50.908 67.36 52.188 67.36H52.508V68H35.292Z" fill="#71120B"/>
</svg>
